<svg width="10" height="10" viewBox="0 0 10 10" fill="none" xmlns="http://www.w3.org/2000/svg">
<path d="M3.5 4.875C3.155 4.875 2.875 5.155 2.875 5.5C2.875 5.845 3.155 6.125 3.5 6.125C3.845 6.125 4.125 5.845 4.125 5.5C4.125 5.155 3.845 4.875 3.5 4.875ZM6.5 4.875C6.155 4.875 5.875 5.155 5.875 5.5C5.875 5.845 6.155 6.125 6.5 6.125C6.845 6.125 7.125 5.845 7.125 5.5C7.125 5.155 6.845 4.875 6.5 4.875ZM5 0C2.24 0 0 2.24 0 5C0 7.76 2.24 10 5 10C7.76 10 10 7.76 10 5C10 2.24 7.76 0 5 0ZM5 9C2.795 9 1 7.205 1 5C1 4.855 1.01 4.71 1.025 4.57C2.205 4.045 3.14 3.08 3.63 1.885C4.535 3.165 6.025 4 7.71 4C8.1 4 8.475 3.955 8.835 3.87C8.94 4.225 9 4.605 9 5C9 7.205 7.205 9 5 9Z" fill="black"/>
</svg>
